<?xml version="1.0" ?><!DOCTYPE svg  PUBLIC '-//W3C//DTD SVG 1.1//EN'  'http://www.w3.org/Graphics/SVG/1.1/DTD/svg11.dtd'><svg width="32px" height="32px" viewBox="0 0 32 32" enable-background="new 0 0 32 32" version="1.1" xml:space="preserve" xmlns="http://www.w3.org/2000/svg" xmlns:xlink="http://www.w3.org/1999/xlink"><g id="Layer_2"/><g id="Layer_3"/><g id="Layer_4"/><g id="Layer_5"/><g id="Layer_6"/><g id="Layer_7"/><g id="Layer_8"/><g id="Layer_9"/><g id="Layer_10"/><g id="Layer_11"/><g id="Layer_12"/><g id="Layer_13"/><g id="Layer_14"/><g id="Layer_15"/><g id="Layer_16"/><g id="Layer_17"/><g id="Layer_18"/><g id="Layer_19"/><g id="Maps_11_"/><g id="Maps_10_"/><g id="Maps_9_"/><g id="Maps_8_"/><g id="Maps_7_"/><g id="Maps_6_"/><g id="Maps_5_"/><g id="Maps_4_"/><g id="Maps_3_"/><g id="Maps_2_"/><g id="Maps_1_"><path d="M16,1C10.49,1,6,5.5,6,11.04c0,5.25,8.34,13.72,9.29,14.67C15.49,25.9,15.74,26,16,26s0.51-0.1,0.71-0.29   C17.66,24.76,26,16.29,26,11.04C26,5.5,21.51,1,16,1z" fill="#3F51B5"/><path d="M20,11.04c0,2.2-1.79,4-4,4s-4-1.8-4-4c0-2.21,1.79-4,4-4S20,8.83,20,11.04z" fill="#2197F3"/><g><path d="M16,31c-0.2354,0-0.4595-0.0005-0.6943-0.0107C8.21,30.8652,1,28.5957,1,24.5    c0-2.0806,1.9492-3.8872,5.4893-5.0874c0.5225-0.1748,1.0903,0.103,1.2681,0.6265c0.1772,0.5229-0.103,1.0903-0.6265,1.2681    C4.583,22.1709,3,23.394,3,24.5c0,2.0215,5.0791,4.3623,12.3677,4.4902C15.5986,29,15.7925,29.001,16,29    c0.208,0,0.4009,0,0.6055-0.0088C23.9209,28.8623,29,26.5215,29,24.5c0-1.106-1.583-2.3291-4.1309-3.1929    c-0.5234-0.1777-0.8037-0.7451-0.6265-1.2681c0.1777-0.5234,0.7451-0.8022,1.2681-0.6265C29.0508,20.6128,31,22.4194,31,24.5    c0,4.0957-7.21,6.3652-14.3325,6.4902C16.4595,30.9995,16.2354,31,16,31z" fill="#2197F3"/></g></g><g id="Maps"/></svg>