<?xml version="1.0" encoding="iso-8859-1"?>
<svg version="1.1" id="Layer_1" xmlns="http://www.w3.org/2000/svg" xmlns:xlink="http://www.w3.org/1999/xlink" x="0px" y="0px"
	 viewBox="0 0 512 512" style="enable-background:new 0 0 512 512;" xml:space="preserve">
<circle style="fill:gainsboro;" cx="255.996" cy="193.345" r="96.759"/>
	<path style="fill:slateblue;" d="M256,304.456c-61.264,0-111.107-49.842-111.107-111.105S194.735,82.244,256,82.244
		s111.107,49.842,111.107,111.107C367.107,254.615,317.265,304.456,256,304.456z M256,110.943
		c-45.439,0-82.408,36.967-82.408,82.408c0,45.439,36.969,82.406,82.408,82.406s82.408-36.967,82.408-82.406
		C338.408,147.91,301.439,110.943,256,110.943z"/>
	<path style="fill:slateblue;" d="M256,0C149.386,0,62.649,86.737,62.649,193.351c0,72.07,39.642,135.049,98.262,168.299
		l82.662,143.175c2.563,4.44,7.301,7.175,12.427,7.175c5.126,0,9.864-2.735,12.427-7.175l84.026-145.537
		c3.963-6.863,1.611-15.639-5.252-19.601c-6.866-3.963-15.639-1.611-19.601,5.252l-71.598,124.013l-51.518-89.231
		c16.409,4.542,33.683,6.98,51.518,6.98c7.924,0,14.349-6.424,14.349-14.349c0-7.925-6.426-14.35-14.349-14.35
		c-90.791,0-164.652-73.863-164.652-164.652S165.211,28.699,256,28.699s164.652,73.863,164.652,164.652
		c0,40.902-15.099,80.118-42.515,110.421c-5.316,5.878-4.863,14.951,1.014,20.269c5.876,5.316,14.951,4.862,20.269-1.014
		c32.197-35.591,49.93-81.644,49.93-129.675C449.351,86.737,362.614,0,256,0z"/>
</svg>
