<svg width="60" height="60" viewBox="0 0 60 60" fill="none" xmlns="http://www.w3.org/2000/svg">
<path fill-rule="evenodd" clip-rule="evenodd" d="M30 0C13.4576 0 0 13.4576 0 30C0 46.5424 13.4576 60 30 60C46.5411 60 60 46.5424 60 30C60 13.4576 46.5411 0 30 0Z" fill="white"/>
<path fill-rule="evenodd" clip-rule="evenodd" d="M45.1394 8.48242C42.8497 14.355 37.6371 15.5769 30.0865 15.5769C29.2761 15.5769 28.4734 15.5642 27.6987 15.5527C26.9495 15.5425 26.2411 15.5311 25.5467 15.5311C24.93 15.5311 24.3082 15.5387 23.6953 15.5655C24.7529 12.9687 26.4411 11.204 28.8442 10.1337C32.1939 8.64297 36.549 8.62768 40.3919 8.61621C42.0661 8.60984 43.669 8.60347 45.1394 8.48242Z" fill="#00923A"/>
<path fill-rule="evenodd" clip-rule="evenodd" d="M47.4933 10.3663C44.1066 17.7436 36.5585 18.4827 30.0884 18.4827C28.6677 18.4827 27.3069 18.4483 26.0467 18.4406L24.4171 24.8139C32.7628 18.0099 43.7995 24.7553 42.6197 35.0225C41.8246 41.9373 36.8949 46.4593 31.6798 47.7589C25.9983 49.1758 19.704 47.0556 16.8817 41.2658C16.5823 40.6542 16.0612 39.4285 15.8624 38.7736L21.8535 37.2344C21.9592 37.5797 22.1389 37.9135 22.3275 38.2181C26.3385 44.6869 34.4663 41.4519 35.3837 34.7409C36.3177 27.914 26.7386 24.2775 22.3733 32.2563L17.0601 29.9921L16.9684 29.9513L19.5307 19.6651C19.6887 18.9337 20.2213 16.8912 20.313 16.5561C23.2092 5.90674 32.5781 5.73855 40.093 5.71052C36.9854 4.41725 33.5783 3.70117 30.0017 3.70117C15.4763 3.70117 3.70312 15.4744 3.70312 29.9998C3.70312 44.5251 15.4763 56.2983 30.0017 56.2983C44.5271 56.2983 56.3003 44.5251 56.3003 29.9998C56.3003 22.1917 52.8957 15.1826 47.4933 10.3663Z" fill="#E52322"/>
</svg>
