<svg width="34" height="34" viewBox="0 0 36 36" fill="none" xmlns="http://www.w3.org/2000/svg" color="#50b946">
    <path d="M22.674 11.381l-4.713 4.682-4.714-4.682c-2.6-2.583-2.6-6.78 0-9.444 2.6-2.583 6.827-2.583 9.427 0 2.6 2.664 2.6 6.861 0 9.444z" fill="#5FAF2D"></path>
    <path d="M13.247 24.618l4.714-4.681 4.713 4.681c2.6 2.583 2.6 6.78 0 9.444-2.6 2.583-6.826 2.583-9.427 0-2.6-2.663-2.6-6.86 0-9.444z" fill="#005A28"></path>
    <path d="M24.62 22.763l-4.714-4.762 4.714-4.682c2.6-2.583 6.826-2.583 9.427 0 2.6 2.583 2.6 6.78 0 9.444-2.6 2.583-6.827 2.583-9.427 0z" fill="#1EAF37"></path>
    <path d="M11.377 13.319l4.714 4.682-4.714 4.681c-2.6 2.584-6.826 2.584-9.427 0-2.6-2.583-2.6-6.78 0-9.444 2.52-2.502 6.827-2.502 9.427.081z" fill="#AAE641"></path>
</svg>