<?xml version="1.0" ?><svg width="24px" height="24px" viewBox="0 0 24 24" xmlns="http://www.w3.org/2000/svg"><defs><style>.cls-1{fill:#f19b5f;}.cls-2{fill:#ffce69;}.cls-3{fill:#6c2e7c;}</style></defs><g id="Icons"><path class="cls-1" d="M18.6,23H5.4a3,3,0,0,1-2.98-3.37l.39-3.13.86-6.87A3.01,3.01,0,0,1,6.65,7h10.7a3.01,3.01,0,0,1,2.98,2.63l.86,6.87.39,3.13A3,3,0,0,1,18.6,23Z"/><path class="cls-2" d="M21.19,16.5A2.976,2.976,0,0,1,18.6,18H5.4a2.976,2.976,0,0,1-2.59-1.5l.86-6.87A3.01,3.01,0,0,1,6.65,7h10.7a3.01,3.01,0,0,1,2.98,2.63Z"/></g><g data-name="Layer 4" id="Layer_4"><path class="cls-3" d="M5.4,24H18.6a4,4,0,0,0,3.968-4.5l-1.25-10A4.005,4.005,0,0,0,17.352,6H17V5A5,5,0,0,0,7,5V6H6.648A4.005,4.005,0,0,0,2.68,9.5l-1.25,10A4,4,0,0,0,5.4,24ZM9,5a3,3,0,0,1,6,0V6H9ZM3.414,19.752l1.25-10A2,2,0,0,1,6.648,8H7v2a1,1,0,0,0,2,0V8h6v2a1,1,0,0,0,2,0V8h.352a2,2,0,0,1,1.984,1.752l1.25,10A2,2,0,0,1,18.6,22H5.4a2,2,0,0,1-1.984-2.248Z"/></g></svg>